<?xml version="1.0" encoding="UTF-8" standalone="no"?>
<svg
   xmlns:dc="http://purl.org/dc/elements/1.1/"
   xmlns:cc="http://creativecommons.org/ns#"
   xmlns:rdf="http://www.w3.org/1999/02/22-rdf-syntax-ns#"
   xmlns:svg="http://www.w3.org/2000/svg"
   xmlns="http://www.w3.org/2000/svg"
   viewBox="0 0 682.66669 682.66669"
   height="682.66669"
   width="682.66669"
   xml:space="preserve"
   id="svg2"
   version="1.1"><metadata
     id="metadata8"><rdf:RDF><cc:Work
         rdf:about=""><dc:format>image/svg+xml</dc:format><dc:type
           rdf:resource="http://purl.org/dc/dcmitype/StillImage" /></cc:Work></rdf:RDF></metadata><defs
     id="defs6"><clipPath
       id="clipPath18"
       clipPathUnits="userSpaceOnUse"><path
         id="path16"
         d="M 0,512 H 512 V 0 H 0 Z" /></clipPath></defs><g
     transform="matrix(1.3333333,0,0,-1.3333333,0,682.66667)"
     id="g10"><g
       id="g12"><g
         clip-path="url(#clipPath18)"
         id="g14"><g
           transform="translate(444.1445,220.5186)"
           id="g20"><path
             id="path22"
             style="fill:#000000;fill-opacity:1;fill-rule:nonzero;stroke:none"
             d="m 0,0 -99.338,88.354 c -5.419,4.819 -13.715,4.333 -18.532,-1.084 -4.819,-5.418 -4.334,-13.717 1.084,-18.535 l 88.307,-78.546 -88.308,-78.544 c -5.418,-4.819 -5.904,-13.117 -1.085,-18.535 2.595,-2.917 6.195,-4.403 9.814,-4.403 3.103,0 6.219,1.094 8.72,3.318 L 0,-19.62 c 2.802,2.491 4.403,6.061 4.403,9.809 C 4.403,-6.062 2.8,-2.492 0,0" /></g><g
           transform="translate(185.7275,307.7881)"
           id="g24"><path
             id="path26"
             style="fill:#000000;fill-opacity:1;fill-rule:nonzero;stroke:none"
             d="m 0,0 c -4.819,5.418 -13.117,5.904 -18.535,1.084 l -99.337,-88.354 c -2.8,-2.492 -4.403,-6.061 -4.403,-9.809 0,-3.748 1.603,-7.317 4.403,-9.81 l 99.337,-88.353 c 2.501,-2.226 5.617,-3.32 8.722,-3.32 3.618,0 7.22,1.488 9.814,4.404 4.818,5.418 4.332,13.716 -1.084,18.534 l -88.31,78.544 88.309,78.544 C 4.332,-13.716 4.819,-5.418 0,0" /></g><g
           transform="translate(287.374,315.3882)"
           id="g28"><path
             id="path30"
             style="fill:#000000;fill-opacity:1;fill-rule:nonzero;stroke:none"
             d="m 0,0 c -6.931,2.097 -14.268,-1.82 -16.37,-8.759 l -55.138,-182.045 c -2.102,-6.94 1.82,-14.269 8.759,-16.371 1.27,-0.383 2.549,-0.567 3.811,-0.567 5.633,0 10.841,3.656 12.56,9.326 L 8.76,-16.371 C 10.862,-9.432 6.94,-2.102 0,0" /></g><path
           id="path32"
           style="fill:#000000;fill-opacity:1;fill-rule:nonzero;stroke:none"
           d="M 26.256,406.974 H 485.743 V 26.257 H 26.256 Z m 0,78.77 H 78.769 V 433.231 H 26.256 Z m 78.77,0 H 406.975 V 433.231 H 105.026 Z M 485.743,433.231 H 433.23 v 52.513 h 52.513 z M 498.872,512 H 13.128 C 5.877,512 0,506.123 0,498.872 V 13.128 C 0,5.878 5.877,0 13.128,0 H 498.872 C 506.121,0 512,5.878 512,13.128 V 498.872 C 512,506.123 506.121,512 498.872,512" /></g></g></g></svg>