<?xml version="1.0" encoding="UTF-8" standalone="no"?>
<svg
   xmlns:dc="http://purl.org/dc/elements/1.1/"
   xmlns:cc="http://creativecommons.org/ns#"
   xmlns:rdf="http://www.w3.org/1999/02/22-rdf-syntax-ns#"
   xmlns:svg="http://www.w3.org/2000/svg"
   xmlns="http://www.w3.org/2000/svg"
   viewBox="0 0 682.66669 677.34399"
   height="677.34399"
   width="682.66669"
   xml:space="preserve"
   id="svg2"
   version="1.1"><metadata
     id="metadata8"><rdf:RDF><cc:Work
         rdf:about=""><dc:format>image/svg+xml</dc:format><dc:type
           rdf:resource="http://purl.org/dc/dcmitype/StillImage" /></cc:Work></rdf:RDF></metadata><defs
     id="defs6"><clipPath
       id="clipPath18"
       clipPathUnits="userSpaceOnUse"><path
         id="path16"
         d="M 0,508.008 H 512 V 0 H 0 Z" /></clipPath></defs><g
     transform="matrix(1.3333333,0,0,-1.3333333,0,677.344)"
     id="g10"><g
       id="g12"><g
         clip-path="url(#clipPath18)"
         id="g14"><g
           transform="translate(474.4111,341.4198)"
           id="g20"><path
             id="path22"
             style="fill:#000000;fill-opacity:1;fill-rule:nonzero;stroke:none"
             d="m 0,0 -14.601,-14.603 -48.673,48.674 14.601,14.601 c 6.5,6.501 15.144,10.082 24.337,10.082 9.192,0 17.837,-3.581 24.338,-10.082 C 6.503,42.171 10.082,33.528 10.082,24.336 10.082,15.144 6.501,6.5 0,0 M -132.986,-313.886 H -446.877 V 28.917 h 96.481 c 7.603,0 13.656,6.163 13.656,13.767 v 96.369 h 203.754 V 3.411 l -154.247,-154.302 c -0.067,-0.067 -0.097,-0.14 -0.161,-0.209 -1.76,-1.714 -3.054,-3.888 -3.701,-6.346 l -24.329,-92.482 c -1.246,-4.734 0.12,-9.775 3.584,-13.238 2.614,-2.614 6.132,-4.032 9.737,-4.032 1.167,0 2.346,0.148 3.504,0.453 l 92.481,24.337 c 2.457,0.647 4.631,1.955 6.347,3.713 0.068,0.066 0.087,0.123 0.155,0.19 l 66.63,66.687 z m -231.288,433.47 V 56.451 h -63.023 z m 154.975,-328.885 -48.673,48.674 175.227,175.227 48.673,-48.674 z m -27.007,-12.58 -46.478,-12.231 12.231,46.476 z M 19.472,68.143 C 7.77,79.844 -7.788,86.288 -24.336,86.288 c -16.548,0 -32.161,-6.444 -43.862,-18.145 l -37.254,-37.197 v 121.875 c 0,7.603 -6.053,13.767 -13.656,13.767 h -231.289 c -3.651,0 -7.153,-1.451 -9.734,-4.033 L -470.324,52.418 c -2.581,-2.581 -4.087,-6.084 -4.087,-9.734 v -370.336 c 0,-7.604 6.274,-13.768 13.877,-13.768 h 341.426 c 7.603,0 13.656,6.164 13.656,13.768 v 183.368 L 19.415,-19.471 c 11.702,11.702 18.174,27.259 18.174,43.807 0,16.548 -6.417,32.105 -18.117,43.807" /></g><g
           transform="translate(117.1309,101.8768)"
           id="g24"><path
             id="path26"
             style="fill:#000000;fill-opacity:1;fill-rule:nonzero;stroke:none"
             d="m 0,0 h -39.925 c -7.603,0 -13.767,-6.163 -13.767,-13.768 0,-7.603 6.164,-13.766 13.767,-13.766 H 0 c 7.604,0 13.767,6.163 13.767,13.766 C 13.767,-6.163 7.604,0 0,0" /></g><g
           transform="translate(124.0146,156.9452)"
           id="g28"><path
             id="path30"
             style="fill:#000000;fill-opacity:1;fill-rule:nonzero;stroke:none"
             d="m 0,0 h -46.809 c -7.603,0 -13.767,-6.163 -13.767,-13.767 0,-7.603 6.164,-13.767 13.767,-13.767 H 0 c 7.604,0 13.767,6.164 13.767,13.767 C 13.767,-6.163 7.604,0 0,0" /></g><g
           transform="translate(137.7817,212.0136)"
           id="g32"><path
             id="path34"
             style="fill:#000000;fill-opacity:1;fill-rule:nonzero;stroke:none"
             d="m 0,0 h -60.576 c -7.603,0 -13.767,-6.163 -13.767,-13.767 0,-7.603 6.164,-13.767 13.767,-13.767 H 0 c 7.604,0 13.767,6.164 13.767,13.767 C 13.767,-6.163 7.604,0 0,0" /></g><g
           transform="translate(77.2061,239.5487)"
           id="g36"><path
             id="path38"
             style="fill:#000000;fill-opacity:1;fill-rule:nonzero;stroke:none"
             d="m 0,0 h 100.5 c 7.604,0 13.768,6.163 13.768,13.767 0,7.603 -6.164,13.767 -13.768,13.767 H 0 c -7.604,0 -13.767,-6.164 -13.767,-13.767 C -13.767,6.163 -7.604,0 0,0" /></g><g
           transform="translate(77.2061,294.6171)"
           id="g40"><path
             id="path42"
             style="fill:#000000;fill-opacity:1;fill-rule:nonzero;stroke:none"
             d="m 0,0 h 156.945 c 7.604,0 13.767,6.164 13.767,13.767 0,7.604 -6.163,13.767 -13.767,13.767 H 0 c -7.604,0 -13.767,-6.163 -13.767,-13.767 C -13.767,6.164 -7.604,0 0,0" /></g><g
           transform="translate(179.083,349.6855)"
           id="g44"><path
             id="path46"
             style="fill:#000000;fill-opacity:1;fill-rule:nonzero;stroke:none"
             d="m 0,0 h 118.397 c 7.604,0 13.767,6.164 13.767,13.767 0,7.604 -6.163,13.767 -13.767,13.767 H 0 c -7.604,0 -13.767,-6.163 -13.767,-13.767 C -13.767,6.164 -7.604,0 0,0" /></g><g
           transform="translate(179.083,404.7538)"
           id="g48"><path
             id="path50"
             style="fill:#000000;fill-opacity:1;fill-rule:nonzero;stroke:none"
             d="m 0,0 h 118.397 c 7.604,0 13.767,6.164 13.767,13.768 0,7.603 -6.163,13.767 -13.767,13.767 H 0 c -7.604,0 -13.767,-6.164 -13.767,-13.767 C -13.767,6.164 -7.604,0 0,0" /></g></g></g></g></svg>